<svg id="svg-city" version="1.1" xmlns="http://www.w3.org/2000/svg" x="0px" y="0px" 
	width="280.94px" height="117.84px" viewBox="77.75 125.89 280.94 117.84">
	<g class="svg-city-red">
		<path fill="#FC0D1B" d="M134.26,154.47c10.39-15.19,27.38-25.59,45.62-28c23.86-3.34,48.92,8.07,62.36,28
			c-5.13,0.04-10.25,0.03-15.38,0.01c-9.17-9.35-21.72-15.68-34.88-16.55c-15.68-1.31-31.48,5.32-42.33,16.54
			C144.52,154.52,139.39,154.5,134.26,154.47z"/>
		<path fill="#FC0D1B" d="M289.53,138.27c3.85-0.81,8.33-0.98,11.5,1.76c4.5,3.72,7.22,9.06,10.5,13.79
			c3.76-4.78,6.33-12.63,13.54-12.66c8.63,0.33,15.36,6.77,20.87,12.78c3.61,4.54,8,10.39,5.71,16.51
			c-2.37,5.45-6.74,9.69-10.34,14.34c4.52,1.33,9.27,2.17,13.44,4.44c3.08,1.64,4.12,5.5,3.92,8.76c-0.52,8.97-4.92,17.24-10.5,24.09
			c-2.51,2.94-5.91,5.84-10.06,5.44c-5.98-0.46-11.44-3.23-17.03-5.19c-0.32,5.92,2.3,13.41-2.63,18.03
			c-6.23,4.52-14.48,3.42-21.67,2.73c-5.92-1-12.52-2.59-16.44-7.49c-3.45-6.41-2.02-13.95-1.77-20.89
			c-5.82,1.65-12.02,6.01-18.14,3.14c-5.48-3.83-7.29-10.84-8.89-16.98c-1.3-7.11-2.5-15.76,2.72-21.63
			c5.34-3.99,12.17-4.9,18.42-6.74c-2.89-3.85-6.39-7.36-8.43-11.75c-1.51-4.76,1.92-9.25,5.3-12.21
			C275.3,143.67,282.19,140.01,289.53,138.27 M285.45,161.52c-2.37,1.37-1.31,5.35,1.56,5.04c3.79-0.29,7.24-2.19,11.01-2.65
			c2.79-0.71,5.58,0.57,7.06,2.99c1.07-4.15,3.08-7.97,5.4-11.54C301.8,154.58,292.4,155.92,285.45,161.52 M321.8,165.91
			c1.79,4.08,5.81,6.95,6.67,11.51c0.81,1.96-0.38,3.79-1.52,5.29c4.31-0.15,8.55,0.78,12.77,1.54c-1.6-8.73-6.33-17.3-14.21-21.77
			C323.47,161.14,320.5,163.68,321.8,165.91 M293.22,181.22c-2.29,1.41-4.93,2.03-7.57,2.27c2.08,1.59,3.64,3.72,4.63,6.14
			c2.14,4.94,4.27,10.47,2.75,15.9c3.9-2.27,8.53-2.47,12.93-2.49c3.73,0.26,7.71,0.4,10.83,2.75c-0.9-3.81-0.15-7.71,0.97-11.37
			c1.29-4.03,3-8.25,6.59-10.77c-5.38-0.45-9.97-3.62-14.05-6.91c-2.34-1.85-4.13-4.28-5.23-7.05
			C302.82,174.95,297.99,178.42,293.22,181.22 M270.77,194.5c0.52,2.18,0.76,4.72,2.51,6.33c1.91,1.2,4.45-0.6,4.45-2.71
			c0.47-4.05-0.53-8.36,1.17-12.21c0.71-1.8,2.6-2.51,4.15-3.4c-3.51-2.37-6.53-5.37-9.27-8.58
			C270.81,180.3,269.39,187.52,270.77,194.5 M333.14,198.02c-2.68,2.06-4.06,5.3-6.42,7.68c-1.92,2.45-5.17,3.4-8.11,2.4
			c1.63,3.93,1.91,8.21,2.37,12.4c7.77-4.4,14.83-11.29,16.7-20.31C338.15,197.83,334.8,196.81,333.14,198.02 M280.25,214.31
			c6.74,5.86,15.55,10.21,24.68,9.07c1.87-0.1,1.91-2.17,2.34-3.5c-4.18-3.84-10.75-3.26-14.64-7.48c-1.3-1.11-1.28-2.89-1.22-4.44
			C288.05,210.69,283.95,212.15,280.25,214.31z"/>
	</g>
	<g class="svg-city-blue">
		<path fill="#074883" d="M179.83,151.83c4.39-2.37,8.78-4.73,13.18-7.08c0.02,6.8,0,13.6,0.01,20.4c4.55,0.01,9.09,0,13.64,0.01
			c-0.01,4.11,0,8.21-0.02,12.32c-4.53,0-9.07,0-13.61,0C193,189,193.04,200.53,193,212.06c-0.05,2.59,0.55,5.79,3.17,6.99
			c4.79,1.56,9.73-0.72,13.84-3.06c-1.16,4.21-2.18,8.45-3.31,12.67c-4.96,2.79-10.99,3.63-16.5,2.18
			c-6.68-1.98-10.45-9.25-10.39-15.87c0.04-12.5,0.02-25,0.01-37.49c-3.78,0-7.56,0-11.33,0c-0.01-4.11-0.01-8.22,0-12.32
			c3.78,0,7.56-0.01,11.34-0.01C179.83,160.71,179.83,156.27,179.83,151.83z"/>
		<path fill="#074883" d="M88.46,172.42c7.49-6.52,17.89-9.17,27.67-8.01c7.68,0.62,14.54,5.15,19.48,10.87
			c-2.53,3.08-5.09,6.14-7.64,9.21c-3.81-3.72-8.55-6.88-13.96-7.46c-7.57-0.98-15.82,2.56-19.52,9.42
			c-6.75,10.23-2.61,26.21,8.97,30.92c8.45,3.71,18.41,0.61,24.52-5.95c2.55,3.06,5.12,6.1,7.63,9.2
			c-4.96,5.69-11.79,10.23-19.47,10.87c-12.79,1.63-26.83-3.73-33.56-15.09C74.69,202.7,76.35,183.2,88.46,172.42z"/>
		<path fill="#074883" d="M143.2,165.08c4.48-0.01,8.96-0.01,13.44,0c-0.01,21.84,0.01,43.68,0,65.51c-4.48,0.01-8.96,0-13.43,0.01
			C143.19,208.76,143.21,186.92,143.2,165.08z"/>
		<path fill="#074883" d="M220.33,165.08c4.48-0.01,8.97-0.01,13.46,0c-0.01,21.84,0,43.68-0.01,65.52c-4.48-0.01-8.96,0-13.44-0.01
			C220.33,208.76,220.34,186.92,220.33,165.08z"/>
	</g>
</svg>
